# xmcd
#
# Track frame offsets: 
#        150
#        16022
#        35517
#        49739
#        77641
#        95028
#        114770
#        133005
#        151292
#        163722
#        181657
#        210482
#        227479
#        238911
#
# Disc length: 3409 seconds
#
# Revision: 0
# Processed by: cddbd v1.5.2PL0 Copyright (c) Steve Scherf et al.
# Submitted via: ExactAudioCopy v1.0b1
#
DISCID=a40d4f0e
DTITLE=B.B. and The Blues Shacks - Reality show
DYEAR=1997
DGENRE=Modern Electric Blues, Contemporary Blues
TTITLE0=Stop my baby
TTITLE1=I can't stop watchin'
TTITLE2=Radio Esperanza
TTITLE3=The last shirt (... got no pokets)
TTITLE4=It takes time
TTITLE5=I ain't Lyin'
TTITLE6=Big Bad Raider
TTITLE7=Should be mine
TTITLE8=Weather girl
TTITLE9=The mean one
TTITLE10=Sweet temptation blues
TTITLE11=Letter from my baby
TTITLE12=Put a thang on it
TTITLE13=Reality show
EXTD=
EXTT0=
EXTT1=
EXTT2=
EXTT3=
EXTT4=
EXTT5=
EXTT6=
EXTT7=
EXTT8=
EXTT9=
EXTT10=
EXTT11=
EXTT12=
EXTT13=
PLAYORDER=
